<?xml version="1.0" encoding="UTF-8"?>
<svg version="1.1" xmlns="http://www.w3.org/2000/svg" width="1024" height="1024" viewBox="290 238 468 582">
<path d="M0 0 C62.6393317 -1.39380712 125.89653216 23.18987222 171.1328125 66.21484375 C206.03168478 99.98654749 225.93256317 146.98923295 232.49951172 194.51782227 C232.79201904 196.63383691 233.11594809 198.74549028 233.44921875 200.85546875 C243.0493353 280.73375477 204.78703019 361.95999052 160.859375 426.12109375 C159.98932157 427.40346827 159.11953545 428.68602419 158.25 429.96875 C144.96900693 449.49265573 130.7872011 468.13973207 115.86328125 486.42578125 C113.41662981 489.42706805 111.00677569 492.4552555 108.609375 495.49609375 C105.23779136 499.72654396 101.66540976 503.74352723 98.0234375 507.7421875 C96.0496799 509.91189576 94.10301789 512.10096565 92.171875 514.30859375 C91.61757813 514.94152344 91.06328125 515.57445312 90.4921875 516.2265625 C89.36894698 517.52984397 88.26029085 518.84579232 87.1640625 520.171875 C86.63039063 520.81511719 86.09671875 521.45835937 85.546875 522.12109375 C85.07636719 522.69859375 84.60585938 523.27609375 84.12109375 523.87109375 C82.859375 525.12109375 82.859375 525.12109375 80.859375 525.12109375 C80.53646484 525.94287109 80.53646484 525.94287109 80.20703125 526.78125 C78.40016074 529.91839619 75.94974529 532.14906228 73.296875 534.55859375 C72.7296875 535.07647461 72.1625 535.59435547 71.578125 536.12792969 C52.89200009 552.89521059 29.01918684 571.263395 2.859375 572.12109375 C-16.14065185 570.19441396 -32.5405248 560.89730625 -47.140625 549.12109375 C-48.11128906 548.3425 -49.08195313 547.56390625 -50.08203125 546.76171875 C-52.78622119 544.56893344 -55.46677236 542.35070128 -58.140625 540.12109375 C-59.25050781 539.21617187 -59.25050781 539.21617187 -60.3828125 538.29296875 C-62.00800607 536.9484311 -63.58145759 535.5416685 -65.140625 534.12109375 C-65.140625 533.46109375 -65.140625 532.80109375 -65.140625 532.12109375 C-65.73286865 531.8578833 -66.3251123 531.59467285 -66.93530273 531.32348633 C-69.24174231 530.06596226 -70.64213058 528.79801108 -72.42578125 526.8828125 C-73.03325195 526.23425293 -73.64072266 525.58569336 -74.26660156 524.91748047 C-74.9056543 524.22154785 -75.54470703 523.52561523 -76.203125 522.80859375 C-76.86924805 522.08945801 -77.53537109 521.37032227 -78.22167969 520.62939453 C-86.53362273 511.60049148 -94.3500357 502.23609462 -101.88256836 492.55102539 C-104.81084619 488.78977854 -107.79860594 485.08583145 -110.8293457 481.40673828 C-117.46361742 473.34506575 -123.69848813 465.0412752 -129.84765625 456.60546875 C-132.66845147 452.74225888 -135.56925356 448.95137783 -138.515625 445.18359375 C-142.26689334 440.3387146 -145.74503309 435.38414055 -149.09375 430.25390625 C-150.52312354 428.06620094 -151.96578511 425.89687805 -153.4375 423.73828125 C-165.13792016 406.53219747 -175.41441885 388.5044153 -185.140625 370.12109375 C-185.70475098 369.0549585 -185.70475098 369.0549585 -186.28027344 367.96728516 C-188.67498378 363.40159563 -190.94766998 358.78688859 -193.140625 354.12109375 C-193.51896484 353.31752441 -193.89730469 352.51395508 -194.28710938 351.68603516 C-208.49523605 321.13627485 -218.23768267 288.62552618 -222.140625 255.12109375 C-222.2348877 254.36401123 -222.32915039 253.60692871 -222.42626953 252.8269043 C-223.47735701 243.18942868 -223.38437479 233.49144607 -223.390625 223.80859375 C-223.39129974 222.87012604 -223.39197449 221.93165833 -223.39266968 220.9647522 C-223.37687336 207.13884385 -222.98074374 193.69831492 -220.140625 180.12109375 C-219.97433594 179.28562012 -219.80804688 178.45014648 -219.63671875 177.58935547 C-212.92068936 144.5129107 -199.98143334 111.88258627 -179.140625 85.12109375 C-178.356875 84.06148438 -177.573125 83.001875 -176.765625 81.91015625 C-160.63507506 60.34958094 -140.31248384 44.49658692 -117.140625 31.12109375 C-116.25020508 30.59056396 -116.25020508 30.59056396 -115.34179688 30.04931641 C-80.60208679 9.38864874 -39.86478419 1.53707501 0 0 Z M-87.28662109 84.11816406 C-89.10996012 85.10450548 -90.94644581 86.06223124 -92.78515625 87.01953125 C-101.58554602 91.71042428 -108.74164422 97.5040396 -116.140625 104.12109375 C-116.94113281 104.77722656 -117.74164063 105.43335938 -118.56640625 106.109375 C-138.75330805 122.85410527 -151.17569944 149.02447866 -157.140625 174.12109375 C-157.30433594 174.78463867 -157.46804688 175.44818359 -157.63671875 176.13183594 C-163.54691192 201.29900148 -161.36517986 230.08273709 -156.140625 255.12109375 C-155.93695313 256.13606934 -155.73328125 257.15104492 -155.5234375 258.19677734 C-150.7166698 281.68540379 -142.5122999 304.18975925 -132.22753906 325.81494141 C-131.14720391 328.10713499 -130.10500746 330.41345533 -129.0703125 332.7265625 C-123.03156076 346.07057326 -115.68933507 358.58323936 -108.140625 371.12109375 C-107.53105957 372.13840576 -107.53105957 372.13840576 -106.90917969 373.17626953 C-101.22558671 382.64105249 -95.16629417 391.87213464 -89.140625 401.12109375 C-73.8762022 396.60910995 -59.9501425 382.92518158 -48.515625 372.24609375 C-47.84047852 371.61566162 -47.16533203 370.98522949 -46.46972656 370.33569336 C-41.37957837 365.59245853 -41.37957837 365.59245853 -37.140625 360.12109375 C-37.54738012 356.84774349 -38.87794568 354.84439704 -40.87890625 352.27734375 C-41.44561035 351.53645508 -42.01231445 350.79556641 -42.59619141 350.03222656 C-43.20897949 349.23655273 -43.82176758 348.44087891 -44.453125 347.62109375 C-75.18574205 306.72277068 -100.41470835 252.60278018 -93.36694336 200.23828125 C-88.93253197 171.93693713 -74.30757388 146.46457487 -51.015625 129.43359375 C-37.56711337 120.48375974 -22.33842697 114.92368754 -6.140625 114.12109375 C-5.17898438 114.06824219 -4.21734375 114.01539063 -3.2265625 113.9609375 C21.11576682 113.26630527 43.59936028 122.19964232 61.859375 138.12109375 C62.44976563 138.62769531 63.04015625 139.13429688 63.6484375 139.65625 C84.22206402 158.71854376 93.29877519 186.40852098 94.7734375 213.76025391 C95.47563307 233.05068337 91.55561823 252.87520579 85.51708984 271.12792969 C84.86595472 273.10115431 84.24716743 275.08267529 83.62890625 277.06640625 C74.66633618 304.86556426 59.48218656 333.02841196 40.22265625 355.10546875 C38.48587861 357.26775057 38.48587861 357.26775057 38.859375 361.12109375 C40.67176282 363.31582917 42.4430414 365.22273971 44.484375 367.18359375 C45.06977051 367.75505127 45.65516602 368.32650879 46.25830078 368.9152832 C60.00331151 382.0990119 76.93124351 395.26185007 94.859375 402.12109375 C98.65514896 400.85583576 99.15086102 399.57818428 101.296875 396.24609375 C102.00199219 395.15425781 102.70710938 394.06242187 103.43359375 392.9375 C103.8207959 392.32793457 104.20799805 391.71836914 104.60693359 391.09033203 C105.93721075 388.99871107 107.28278905 386.91739496 108.62890625 384.8359375 C116.13049969 373.16734598 123.12111899 361.24465833 129.859375 349.12109375 C130.26784668 348.39212891 130.67631836 347.66316406 131.09716797 346.91210938 C160.17318937 294.78252132 178.92687405 228.67648665 162.26953125 169.76171875 C154.74736173 144.35675429 140.41434935 121.98079182 119.859375 105.12109375 C118.70308594 104.15042969 118.70308594 104.15042969 117.5234375 103.16015625 C111.59387954 98.27809118 105.44163264 94.07044833 98.859375 90.12109375 C98.3113623 89.77965332 97.76334961 89.43821289 97.19873047 89.08642578 C73.81236319 74.56377237 46.96946835 67.32142472 19.859375 64.12109375 C18.30476563 63.92193359 18.30476563 63.92193359 16.71875 63.71875 C-18.49172197 59.77647323 -56.2281139 67.29715343 -87.28662109 84.11816406 Z M-29.140625 179.12109375 C-39.61875208 195.1001196 -40.40591915 214.10197474 -37.06298828 232.51879883 C-36.2347504 236.43020017 -35.23324568 240.27586359 -34.140625 244.12109375 C-33.9152002 244.93046387 -33.68977539 245.73983398 -33.45751953 246.57373047 C-27.43339749 267.61521581 -17.77268355 287.47002949 -5.30859375 305.43505859 C-3.55015402 307.97347514 -1.84801929 310.54814541 -0.140625 313.12109375 C4.52840563 308.9300626 7.50803775 304.19590267 10.671875 298.80859375 C11.19668457 297.92212158 11.72149414 297.03564941 12.26220703 296.12231445 C29.23335896 267.1496507 43.66480304 232.88827999 35.9609375 198.796875 C32.58816558 187.54234176 27.21056998 177.4762939 16.859375 171.34375 C0.16179297 162.64709269 -16.62285772 164.29687019 -29.140625 179.12109375 Z M0.859375 399.12109375 C-0.66246055 400.78684534 -2.1830335 402.45375046 -3.703125 404.12109375 C-4.16203125 404.62366699 -4.6209375 405.12624023 -5.09375 405.64404297 C-7.66473983 408.46799083 -10.17747122 411.32811301 -12.640625 414.24609375 C-23.88358956 427.07294015 -38.58391568 437.36239577 -53.140625 446.12109375 C-49.38744418 456.68056102 -41.30462313 465.40470797 -33.6953125 473.41015625 C-31.58199985 475.6527235 -29.60144799 477.93496592 -27.640625 480.30859375 C-21.12929309 487.7834163 -9.58726839 498.84681565 0.671875 500.39453125 C9.90147606 500.82304844 16.26583694 496.76499844 22.984375 490.74609375 C24.61093845 489.20607672 26.23601403 487.6644862 27.859375 486.12109375 C29.24956317 484.92698999 30.64501113 483.73896853 32.046875 482.55859375 C38.85388582 476.61359819 44.39145435 469.33903601 50.109375 462.37109375 C50.72039062 461.62988281 51.33140625 460.88867188 51.9609375 460.125 C57.2686549 454.67386251 57.2686549 454.67386251 59.859375 448.12109375 C57.82345828 446.70480386 55.78991518 445.40413466 53.671875 444.12109375 C46.36164658 439.55254963 39.56186443 434.53448601 32.859375 429.12109375 C32.32989258 428.69602539 31.80041016 428.27095703 31.25488281 427.83300781 C22.75589978 420.96665617 15.00435351 413.48242308 7.375 405.66894531 C5.2205472 403.46868262 3.0409045 401.29448321 0.859375 399.12109375 Z " fill="#FEFEFE" transform="translate(519.140625,242.87890625)"/>
<path d="M0 0 C0.66 0.66 1.32 1.32 2 2 C1.34 2 0.68 2 0 2 C0 1.34 0 0.68 0 0 Z " fill="#FEFEFE" transform="translate(576,691)"/>
<path d="" fill="#FEFEFE" transform="translate(0,0)"/>
<path d="" fill="#FDFDFC" transform="translate(0,0)"/>
<path d="" fill="#FFFFFE" transform="translate(0,0)"/>
<path d="" fill="#FEFEFE" transform="translate(0,0)"/>
<path d="M0 0 C2 1 2 1 2 1 Z " fill="#FFFFFE" transform="translate(518,410)"/>
<path d="M0 0 C2 1 2 1 2 1 Z " fill="#F9FAF9" transform="translate(658,282)"/>
<path d="M0 0 C2 1 2 1 2 1 Z " fill="#FBFDFD" transform="translate(612,259)"/>
<path d="M0 0 C2 1 2 1 2 1 Z " fill="#FBFAFC" transform="translate(465,248)"/>
<path d="" fill="#6F6F6F" transform="translate(0,0)"/>
<path d="" fill="#FAFBFB" transform="translate(0,0)"/>
<path d="" fill="#FAF9FB" transform="translate(0,0)"/>
<path d="" fill="#F9F9F9" transform="translate(0,0)"/>
<path d="" fill="#FEFDFD" transform="translate(0,0)"/>
<path d="" fill="#FCFFFE" transform="translate(0,0)"/>
<path d="" fill="#FDFEFE" transform="translate(0,0)"/>
<path d="" fill="#FAFCFC" transform="translate(0,0)"/>
<path d="" fill="#FEFDFE" transform="translate(0,0)"/>
<path d="" fill="#FFFFFE" transform="translate(0,0)"/>
<path d="" fill="#FDFDFC" transform="translate(0,0)"/>
<path d="" fill="#FCFCFC" transform="translate(0,0)"/>
<path d="" fill="#F9FAFA" transform="translate(0,0)"/>
<path d="" fill="#FBFCFC" transform="translate(0,0)"/>
<path d="" fill="#FBFBFC" transform="translate(0,0)"/>
<path d="" fill="#FAFBFD" transform="translate(0,0)"/>
<path d="" fill="#FCFBFB" transform="translate(0,0)"/>
<path d="" fill="#FFFEFD" transform="translate(0,0)"/>
<path d="" fill="#FEFEFF" transform="translate(0,0)"/>
<path d="" fill="#FFFEFE" transform="translate(0,0)"/>
<path d="" fill="#FAFCFC" transform="translate(0,0)"/>
<path d="" fill="#FBFDFC" transform="translate(0,0)"/>
<path d="" fill="#FAFCFB" transform="translate(0,0)"/>
<path d="" fill="#FDFEFF" transform="translate(0,0)"/>
<path d="" fill="#FAFDFC" transform="translate(0,0)"/>
<path d="" fill="#FDFFFF" transform="translate(0,0)"/>
<path d="" fill="#FEFDFE" transform="translate(0,0)"/>
<path d="" fill="#FCFFFE" transform="translate(0,0)"/>
<path d="" fill="#FFFEFD" transform="translate(0,0)"/>
<path d="" fill="#FFFFFF" transform="translate(0,0)"/>
<path d="" fill="#FFFFFF" transform="translate(0,0)"/>
<path d="" fill="#FFFFFF" transform="translate(0,0)"/>
<path d="" fill="#FFFFFF" transform="translate(0,0)"/>
<path d="" fill="#FDFDFD" transform="translate(0,0)"/>
<path d="" fill="#FFFEFE" transform="translate(0,0)"/>
<path d="" fill="#FAFCFD" transform="translate(0,0)"/>
<path d="" fill="#FAFAFA" transform="translate(0,0)"/>
<path d="" fill="#FEFFFF" transform="translate(0,0)"/>
<path d="" fill="#FEFFFE" transform="translate(0,0)"/>
<path d="" fill="#FDFFFD" transform="translate(0,0)"/>
<path d="" fill="#FEFFFF" transform="translate(0,0)"/>
<path d="" fill="#FDFEFC" transform="translate(0,0)"/>
<path d="" fill="#FEFFFF" transform="translate(0,0)"/>
<path d="" fill="#FEFEFD" transform="translate(0,0)"/>
<path d="" fill="#F9FAFA" transform="translate(0,0)"/>
<path d="" fill="#FEFFFE" transform="translate(0,0)"/>
<path d="" fill="#FEFEFF" transform="translate(0,0)"/>
<path d="" fill="#FFFEFF" transform="translate(0,0)"/>
<path d="" fill="#FEFFFF" transform="translate(0,0)"/>
<path d="" fill="#FEFDFD" transform="translate(0,0)"/>
<path d="" fill="#FEFFFE" transform="translate(0,0)"/>
<path d="" fill="#FFFFFF" transform="translate(0,0)"/>
<path d="" fill="#FFFFFF" transform="translate(0,0)"/>
<path d="" fill="#FEFDFC" transform="translate(0,0)"/>
<path d="" fill="#FEFEFF" transform="translate(0,0)"/>
<path d="" fill="#FFFFFF" transform="translate(0,0)"/>
<path d="" fill="#FEFFFD" transform="translate(0,0)"/>
<path d="" fill="#FEFFFF" transform="translate(0,0)"/>
<path d="" fill="#FDFDFC" transform="translate(0,0)"/>
<path d="" fill="#FFFFFF" transform="translate(0,0)"/>
<path d="" fill="#FEFFFF" transform="translate(0,0)"/>
<path d="" fill="#FAF8F9" transform="translate(0,0)"/>
<path d="" fill="#FEFFFF" transform="translate(0,0)"/>
<path d="" fill="#FFFEFF" transform="translate(0,0)"/>
<path d="" fill="#FEFFFF" transform="translate(0,0)"/>
<path d="" fill="#FCFEFC" transform="translate(0,0)"/>
<path d="" fill="#FEFFFF" transform="translate(0,0)"/>
<path d="" fill="#FEFFFF" transform="translate(0,0)"/>
<path d="" fill="#F9FBF9" transform="translate(0,0)"/>
<path d="" fill="#FFFFFF" transform="translate(0,0)"/>
<path d="" fill="#FEFEFD" transform="translate(0,0)"/>
<path d="" fill="#FEFEFF" transform="translate(0,0)"/>
<path d="" fill="#FDFFFE" transform="translate(0,0)"/>
<path d="" fill="#FAFAFA" transform="translate(0,0)"/>
<path d="" fill="#FBFCFB" transform="translate(0,0)"/>
<path d="" fill="#FAFBFB" transform="translate(0,0)"/>
<path d="" fill="#F9F9FA" transform="translate(0,0)"/>
<path d="" fill="#FAFBFC" transform="translate(0,0)"/>
<path d="" fill="#FAFBFB" transform="translate(0,0)"/>
<path d="" fill="#FDFDFD" transform="translate(0,0)"/>
<path d="" fill="#FAFBFB" transform="translate(0,0)"/>
<path d="" fill="#FAFCFB" transform="translate(0,0)"/>
<path d="" fill="#FAFAFA" transform="translate(0,0)"/>
<path d="" fill="#636463" transform="translate(0,0)"/>
</svg>
